<svg xmlns="http://www.w3.org/2000/svg" xmlns:xlink="http://www.w3.org/1999/xlink" width="200" zoomAndPan="magnify" viewBox="0 0 75 30.000001" height="80" preserveAspectRatio="xMidYMid meet" version="1.0"><defs><g/><clipPath id="8109072821"><path d="M 1.933594 1.964844 L 27.339844 1.964844 L 27.339844 27.367188 L 1.933594 27.367188 Z M 1.933594 1.964844 " clip-rule="nonzero"/></clipPath></defs><g clip-path="url(#8109072821)"><path fill="#245dab" d="M 14.484375 1.964844 C 15.308594 1.964844 16.125 2.042969 16.933594 2.203125 C 17.738281 2.363281 18.523438 2.601562 19.285156 2.917969 C 20.046875 3.234375 20.769531 3.621094 21.457031 4.078125 C 22.140625 4.535156 22.773438 5.054688 23.355469 5.636719 C 23.941406 6.222656 24.460938 6.855469 24.917969 7.539062 C 25.375 8.226562 25.761719 8.949219 26.078125 9.710938 C 26.394531 10.46875 26.628906 11.253906 26.792969 12.0625 C 26.953125 12.871094 27.03125 13.6875 27.03125 14.511719 C 27.03125 15.335938 26.953125 16.152344 26.792969 16.960938 C 26.628906 17.769531 26.394531 18.550781 26.078125 19.3125 C 25.761719 20.074219 25.375 20.796875 24.917969 21.484375 C 24.460938 22.167969 23.941406 22.800781 23.355469 23.382812 C 22.773438 23.96875 22.140625 24.488281 21.457031 24.945312 C 20.769531 25.402344 20.046875 25.789062 19.285156 26.105469 C 18.523438 26.421875 17.738281 26.65625 16.933594 26.820312 C 16.125 26.980469 15.308594 27.058594 14.484375 27.058594 C 13.660156 27.058594 12.84375 26.980469 12.035156 26.820312 C 11.226562 26.65625 10.441406 26.421875 9.683594 26.105469 C 8.921875 25.789062 8.199219 25.402344 7.511719 24.945312 C 6.828125 24.488281 6.195312 23.96875 5.609375 23.382812 C 5.027344 22.800781 4.507812 22.167969 4.050781 21.484375 C 3.59375 20.796875 3.207031 20.074219 2.890625 19.3125 C 2.574219 18.550781 2.335938 17.769531 2.175781 16.960938 C 2.015625 16.152344 1.933594 15.335938 1.933594 14.511719 C 1.933594 13.6875 2.015625 12.871094 2.175781 12.0625 C 2.335938 11.253906 2.574219 10.46875 2.890625 9.710938 C 3.207031 8.949219 3.59375 8.226562 4.050781 7.539062 C 4.507812 6.855469 5.027344 6.222656 5.609375 5.636719 C 6.195312 5.054688 6.828125 4.535156 7.511719 4.078125 C 8.199219 3.621094 8.921875 3.234375 9.683594 2.917969 C 10.441406 2.601562 11.226562 2.363281 12.035156 2.203125 C 12.84375 2.042969 13.660156 1.964844 14.484375 1.964844 Z M 14.484375 1.964844 " fill-opacity="1" fill-rule="evenodd"/></g><path fill="#ffffff" d="M 14.398438 21.566406 C 12.53125 21.566406 10.746094 20.839844 9.410156 19.503906 C 8.070312 18.164062 7.34375 16.40625 7.34375 14.511719 C 7.34375 12.617188 8.070312 10.859375 9.410156 9.519531 C 10.746094 8.179688 12.53125 7.457031 14.398438 7.457031 C 16.296875 7.457031 18.054688 8.179688 19.390625 9.519531 C 20.730469 10.859375 21.457031 12.617188 21.457031 14.511719 C 21.457031 16.40625 20.730469 18.164062 19.390625 19.503906 C 18.054688 20.839844 16.296875 21.566406 14.398438 21.566406 Z M 14.398438 7.761719 C 10.691406 7.761719 7.652344 10.800781 7.652344 14.511719 C 7.652344 18.21875 10.691406 21.261719 14.398438 21.261719 C 18.136719 21.261719 21.148438 18.21875 21.148438 14.511719 C 21.148438 10.800781 18.136719 7.761719 14.398438 7.761719 Z M 14.398438 7.761719 " fill-opacity="1" fill-rule="evenodd"/><path fill="#ffffff" d="M 14.398438 20.003906 C 11.390625 20.003906 8.90625 17.550781 8.90625 14.511719 C 8.90625 11.472656 11.390625 9.019531 14.398438 9.019531 C 17.441406 9.019531 19.894531 11.472656 19.894531 14.511719 C 19.894531 17.550781 17.441406 20.003906 14.398438 20.003906 Z M 14.398438 9.324219 C 11.554688 9.324219 9.242188 11.667969 9.242188 14.511719 C 9.242188 17.355469 11.554688 19.699219 14.398438 19.699219 C 17.273438 19.699219 19.585938 17.355469 19.585938 14.511719 C 19.585938 11.667969 17.273438 9.324219 14.398438 9.324219 Z M 14.398438 9.324219 " fill-opacity="1" fill-rule="evenodd"/><path fill="#ffffff" d="M 14.398438 10.914062 C 14.316406 10.914062 14.261719 10.832031 14.261719 10.746094 L 14.261719 7.597656 C 14.261719 7.511719 14.316406 7.457031 14.398438 7.457031 C 14.484375 7.457031 14.566406 7.511719 14.566406 7.597656 L 14.566406 10.746094 C 14.566406 10.832031 14.484375 10.914062 14.398438 10.914062 Z M 14.398438 10.914062 " fill-opacity="1" fill-rule="evenodd"/><path fill="#ffffff" d="M 14.398438 21.566406 C 14.316406 21.566406 14.261719 21.511719 14.261719 21.425781 L 14.261719 18.277344 C 14.261719 18.191406 14.316406 18.109375 14.398438 18.109375 C 14.484375 18.109375 14.566406 18.191406 14.566406 18.277344 L 14.566406 21.425781 C 14.566406 21.511719 14.484375 21.566406 14.398438 21.566406 Z M 14.398438 21.566406 " fill-opacity="1" fill-rule="evenodd"/><path fill="#ffffff" d="M 21.316406 14.679688 L 18.164062 14.679688 C 18.082031 14.679688 18.027344 14.59375 18.027344 14.511719 C 18.027344 14.429688 18.082031 14.34375 18.164062 14.34375 L 21.316406 14.34375 C 21.398438 14.34375 21.457031 14.429688 21.457031 14.511719 C 21.457031 14.59375 21.398438 14.679688 21.316406 14.679688 Z M 21.316406 14.679688 " fill-opacity="1" fill-rule="evenodd"/><path fill="#ffffff" d="M 10.636719 14.679688 L 7.511719 14.679688 C 7.429688 14.679688 7.34375 14.59375 7.34375 14.511719 C 7.34375 14.429688 7.429688 14.34375 7.511719 14.34375 L 10.636719 14.34375 C 10.71875 14.34375 10.804688 14.429688 10.804688 14.511719 C 10.804688 14.59375 10.71875 14.679688 10.636719 14.679688 Z M 10.636719 14.679688 " fill-opacity="1" fill-rule="evenodd"/><path fill="#ffffff" d="M 20.675781 9.492188 C 20.171875 9.492188 19.726562 9.074219 19.726562 8.542969 C 19.726562 8.042969 20.171875 7.597656 20.675781 7.597656 C 21.203125 7.597656 21.621094 8.042969 21.621094 8.542969 C 21.621094 9.074219 21.203125 9.492188 20.675781 9.492188 Z M 20.675781 7.929688 C 20.339844 7.929688 20.0625 8.210938 20.0625 8.542969 C 20.0625 8.90625 20.339844 9.183594 20.675781 9.183594 C 21.035156 9.183594 21.316406 8.90625 21.316406 8.542969 C 21.316406 8.210938 21.035156 7.929688 20.675781 7.929688 Z M 20.675781 7.929688 " fill-opacity="1" fill-rule="evenodd"/><path fill="#ffffff" d="M 8.601562 21.566406 C 8.070312 21.566406 7.652344 21.148438 7.652344 20.617188 C 7.652344 20.117188 8.070312 19.699219 8.601562 19.699219 C 9.128906 19.699219 9.546875 20.117188 9.546875 20.617188 C 9.546875 21.148438 9.128906 21.566406 8.601562 21.566406 Z M 8.601562 20.003906 C 8.265625 20.003906 7.988281 20.285156 7.988281 20.617188 C 7.988281 20.980469 8.265625 21.261719 8.601562 21.261719 C 8.933594 21.261719 9.242188 20.980469 9.242188 20.617188 C 9.242188 20.285156 8.933594 20.003906 8.601562 20.003906 Z M 8.601562 20.003906 " fill-opacity="1" fill-rule="evenodd"/><path fill="#ffffff" d="M 14.398438 14.398438 C 13.5625 14.398438 12.894531 13.730469 12.894531 12.894531 C 12.894531 12.058594 13.5625 11.359375 14.398438 11.359375 C 15.238281 11.359375 15.90625 12.058594 15.90625 12.894531 C 15.90625 13.730469 15.238281 14.398438 14.398438 14.398438 Z M 14.398438 11.695312 C 13.730469 11.695312 13.203125 12.226562 13.203125 12.894531 C 13.203125 13.535156 13.730469 14.09375 14.398438 14.09375 C 15.070312 14.09375 15.597656 13.535156 15.597656 12.894531 C 15.597656 12.226562 15.070312 11.695312 14.398438 11.695312 Z M 14.398438 11.695312 " fill-opacity="1" fill-rule="evenodd"/><path fill="#ffffff" d="M 14.398438 16.601562 C 14.34375 16.601562 14.316406 16.574219 14.289062 16.546875 L 13.785156 15.960938 C 13.757812 15.933594 13.730469 15.878906 13.757812 15.820312 L 14.261719 14.203125 C 14.289062 14.121094 14.34375 14.09375 14.398438 14.09375 C 14.457031 14.09375 14.539062 14.121094 14.539062 14.175781 L 15.152344 15.792969 C 15.179688 15.878906 15.152344 15.933594 15.125 15.960938 L 14.511719 16.546875 C 14.484375 16.574219 14.457031 16.601562 14.398438 16.601562 Z M 14.09375 15.820312 L 14.429688 16.210938 L 14.820312 15.820312 L 14.429688 14.734375 Z M 14.09375 15.820312 " fill-opacity="1" fill-rule="evenodd"/><path fill="#ffffff" d="M 16.019531 17.1875 C 15.90625 17.1875 15.851562 17.132812 15.851562 17.050781 L 15.851562 16.351562 C 15.851562 16.269531 15.90625 16.183594 16.019531 16.183594 C 16.101562 16.183594 16.15625 16.269531 16.15625 16.351562 L 16.15625 17.050781 C 16.15625 17.132812 16.101562 17.1875 16.019531 17.1875 Z M 16.019531 17.1875 " fill-opacity="1" fill-rule="evenodd"/><path fill="#ffffff" d="M 12.8125 17.1875 C 12.726562 17.1875 12.644531 17.132812 12.644531 17.050781 L 12.644531 16.351562 C 12.644531 16.269531 12.726562 16.183594 12.8125 16.183594 C 12.894531 16.183594 12.949219 16.269531 12.949219 16.351562 L 12.949219 17.050781 C 12.949219 17.132812 12.894531 17.1875 12.8125 17.1875 Z M 12.8125 17.1875 " fill-opacity="1" fill-rule="evenodd"/><path fill="#ffffff" d="M 16.910156 17.1875 L 11.917969 17.1875 C 11.808594 17.1875 11.75 17.132812 11.75 17.050781 L 11.75 15.515625 C 11.75 15.488281 11.75 15.433594 11.777344 15.402344 C 12.390625 14.59375 13.367188 14.09375 14.398438 14.09375 C 15.433594 14.09375 16.40625 14.59375 17.023438 15.402344 C 17.050781 15.433594 17.050781 15.488281 17.050781 15.515625 L 17.050781 17.050781 C 17.050781 17.132812 16.992188 17.1875 16.910156 17.1875 Z M 12.058594 16.882812 L 16.742188 16.882812 L 16.742188 15.570312 C 16.183594 14.847656 15.320312 14.398438 14.398438 14.398438 C 13.480469 14.398438 12.617188 14.847656 12.058594 15.570312 Z M 12.058594 16.882812 " fill-opacity="1" fill-rule="evenodd"/><g fill="#245dab" fill-opacity="1"><g transform="translate(28.949226, 16.982226)"><g><path d="M 5.09375 -5.9375 L 3.4375 -5.9375 L 3.4375 -6.5625 C 3.4375 -6.632812 3.410156 -6.691406 3.359375 -6.734375 C 3.316406 -6.785156 3.265625 -6.8125 3.203125 -6.8125 L 2.515625 -6.8125 C 2.441406 -6.8125 2.382812 -6.785156 2.34375 -6.734375 C 2.300781 -6.691406 2.28125 -6.632812 2.28125 -6.5625 L 2.28125 -5.140625 C 2.28125 -5.066406 2.300781 -5.003906 2.34375 -4.953125 C 2.382812 -4.910156 2.441406 -4.890625 2.515625 -4.890625 L 3.625 -4.890625 C 4.65625 -4.867188 5.171875 -4.320312 5.171875 -3.25 L 5.171875 -1.515625 C 5.171875 -0.421875 4.65625 0.125 3.625 0.125 L 2.171875 0.125 C 1.140625 0.125 0.625 -0.421875 0.625 -1.515625 L 0.625 -2.34375 L 2.28125 -2.34375 L 2.28125 -1.453125 C 2.28125 -1.390625 2.300781 -1.332031 2.34375 -1.28125 C 2.382812 -1.226562 2.441406 -1.203125 2.515625 -1.203125 L 3.28125 -1.203125 C 3.351562 -1.203125 3.410156 -1.226562 3.453125 -1.28125 C 3.492188 -1.332031 3.515625 -1.390625 3.515625 -1.453125 L 3.515625 -3.03125 C 3.515625 -3.101562 3.492188 -3.160156 3.453125 -3.203125 C 3.410156 -3.253906 3.351562 -3.28125 3.28125 -3.28125 L 2.171875 -3.28125 C 1.140625 -3.28125 0.625 -3.828125 0.625 -4.921875 L 0.625 -6.53125 C 0.625 -7.625 1.140625 -8.171875 2.171875 -8.171875 L 3.546875 -8.171875 C 4.578125 -8.171875 5.09375 -7.625 5.09375 -6.53125 Z M 5.09375 -5.9375 "/></g></g></g><g fill="#245dab" fill-opacity="1"><g transform="translate(34.648507, 16.982226)"><g><path d="M 3.875 -8.046875 L 5.546875 -8.046875 L 3.875 0 L 1.875 0 L 0.21875 -8.046875 L 1.90625 -8.046875 L 2.890625 -2.171875 Z M 3.875 -8.046875 "/></g></g></g><g fill="#245dab" fill-opacity="1"><g transform="translate(40.434896, 16.982226)"><g><path d="M 3.8125 -8.046875 C 4.84375 -8.046875 5.359375 -7.5 5.359375 -6.40625 L 5.359375 -1.640625 C 5.359375 -0.546875 4.84375 0 3.8125 0 L 0.625 0 L 0.625 -8.046875 Z M 3.625 -1.4375 L 3.625 -6.609375 C 3.625 -6.679688 3.597656 -6.738281 3.546875 -6.78125 C 3.503906 -6.832031 3.453125 -6.859375 3.390625 -6.859375 L 2.359375 -6.859375 L 2.359375 -1.1875 L 3.390625 -1.1875 C 3.453125 -1.1875 3.503906 -1.210938 3.546875 -1.265625 C 3.597656 -1.316406 3.625 -1.375 3.625 -1.4375 Z M 3.625 -1.4375 "/></g></g></g><g fill="#245dab" fill-opacity="1"><g transform="translate(46.470161, 16.982226)"><g/></g></g><g fill="#245dab" fill-opacity="1"><g transform="translate(48.983817, 16.982226)"><g><path d="M 2.921875 -8.046875 L 4.671875 -8.046875 L 4.671875 -1.515625 C 4.671875 -0.421875 4.15625 0.125 3.125 0.125 L 1.671875 0.125 C 0.648438 0.125 0.140625 -0.421875 0.140625 -1.515625 L 0.140625 -2.53125 L 1.796875 -2.53125 L 1.796875 -1.3125 C 1.796875 -1.25 1.816406 -1.191406 1.859375 -1.140625 C 1.898438 -1.085938 1.957031 -1.0625 2.03125 -1.0625 L 2.6875 -1.0625 C 2.75 -1.0625 2.800781 -1.085938 2.84375 -1.140625 C 2.894531 -1.191406 2.921875 -1.25 2.921875 -1.3125 Z M 2.921875 -8.046875 "/></g></g></g><g fill="#245dab" fill-opacity="1"><g transform="translate(54.060909, 16.982226)"><g><path d="M 5.359375 -6.53125 L 5.359375 -1.515625 C 5.359375 -0.421875 4.84375 0.125 3.8125 0.125 L 2.171875 0.125 C 1.140625 0.125 0.625 -0.421875 0.625 -1.515625 L 0.625 -6.53125 C 0.625 -7.625 1.140625 -8.171875 2.171875 -8.171875 L 3.8125 -8.171875 C 4.84375 -8.171875 5.359375 -7.625 5.359375 -6.53125 Z M 3.625 -1.3125 L 3.625 -6.734375 C 3.625 -6.804688 3.597656 -6.863281 3.546875 -6.90625 C 3.503906 -6.957031 3.453125 -6.984375 3.390625 -6.984375 L 2.59375 -6.984375 C 2.53125 -6.984375 2.472656 -6.957031 2.421875 -6.90625 C 2.378906 -6.863281 2.359375 -6.804688 2.359375 -6.734375 L 2.359375 -1.3125 C 2.359375 -1.25 2.378906 -1.191406 2.421875 -1.140625 C 2.472656 -1.085938 2.53125 -1.0625 2.59375 -1.0625 L 3.390625 -1.0625 C 3.453125 -1.0625 3.503906 -1.085938 3.546875 -1.140625 C 3.597656 -1.191406 3.625 -1.25 3.625 -1.3125 Z M 3.625 -1.3125 "/></g></g></g><g fill="#245dab" fill-opacity="1"><g transform="translate(60.083731, 16.982226)"><g><path d="M 4.546875 -4.40625 C 5.085938 -4.207031 5.359375 -3.765625 5.359375 -3.078125 L 5.359375 -1.640625 C 5.359375 -0.546875 4.84375 0 3.8125 0 L 0.625 0 L 0.625 -8.046875 L 3.71875 -8.046875 C 4.75 -8.046875 5.265625 -7.5 5.265625 -6.40625 L 5.265625 -5.671875 C 5.265625 -5.003906 5.023438 -4.582031 4.546875 -4.40625 Z M 3.28125 -6.859375 L 2.359375 -6.859375 L 2.359375 -4.71875 L 3.28125 -4.71875 C 3.351562 -4.71875 3.410156 -4.738281 3.453125 -4.78125 C 3.492188 -4.832031 3.515625 -4.894531 3.515625 -4.96875 L 3.515625 -6.609375 C 3.515625 -6.679688 3.492188 -6.738281 3.453125 -6.78125 C 3.410156 -6.832031 3.351562 -6.859375 3.28125 -6.859375 Z M 3.625 -1.4375 L 3.625 -3.25 C 3.625 -3.3125 3.597656 -3.367188 3.546875 -3.421875 C 3.503906 -3.472656 3.453125 -3.5 3.390625 -3.5 L 2.359375 -3.5 L 2.359375 -1.1875 L 3.390625 -1.1875 C 3.453125 -1.1875 3.503906 -1.210938 3.546875 -1.265625 C 3.597656 -1.316406 3.625 -1.375 3.625 -1.4375 Z M 3.625 -1.4375 "/></g></g></g><g fill="#245dab" fill-opacity="1"><g transform="translate(66.019445, 16.982226)"><g><path d="M 5.09375 -5.9375 L 3.4375 -5.9375 L 3.4375 -6.5625 C 3.4375 -6.632812 3.410156 -6.691406 3.359375 -6.734375 C 3.316406 -6.785156 3.265625 -6.8125 3.203125 -6.8125 L 2.515625 -6.8125 C 2.441406 -6.8125 2.382812 -6.785156 2.34375 -6.734375 C 2.300781 -6.691406 2.28125 -6.632812 2.28125 -6.5625 L 2.28125 -5.140625 C 2.28125 -5.066406 2.300781 -5.003906 2.34375 -4.953125 C 2.382812 -4.910156 2.441406 -4.890625 2.515625 -4.890625 L 3.625 -4.890625 C 4.65625 -4.867188 5.171875 -4.320312 5.171875 -3.25 L 5.171875 -1.515625 C 5.171875 -0.421875 4.65625 0.125 3.625 0.125 L 2.171875 0.125 C 1.140625 0.125 0.625 -0.421875 0.625 -1.515625 L 0.625 -2.34375 L 2.28125 -2.34375 L 2.28125 -1.453125 C 2.28125 -1.390625 2.300781 -1.332031 2.34375 -1.28125 C 2.382812 -1.226562 2.441406 -1.203125 2.515625 -1.203125 L 3.28125 -1.203125 C 3.351562 -1.203125 3.410156 -1.226562 3.453125 -1.28125 C 3.492188 -1.332031 3.515625 -1.390625 3.515625 -1.453125 L 3.515625 -3.03125 C 3.515625 -3.101562 3.492188 -3.160156 3.453125 -3.203125 C 3.410156 -3.253906 3.351562 -3.28125 3.28125 -3.28125 L 2.171875 -3.28125 C 1.140625 -3.28125 0.625 -3.828125 0.625 -4.921875 L 0.625 -6.53125 C 0.625 -7.625 1.140625 -8.171875 2.171875 -8.171875 L 3.546875 -8.171875 C 4.578125 -8.171875 5.09375 -7.625 5.09375 -6.53125 Z M 5.09375 -5.9375 "/></g></g></g><g fill="#245dab" fill-opacity="1"><g transform="translate(31.128836, 21.402954)"><g><path d="M 0.25 0 L 0.25 -1.6875 L 1.203125 -1.6875 L 1.203125 -1.484375 L 0.453125 -1.484375 L 0.453125 -0.90625 L 1.140625 -0.90625 L 1.140625 -0.703125 L 0.453125 -0.703125 L 0.453125 0 Z M 0.25 0 "/></g></g></g><g fill="#245dab" fill-opacity="1"><g transform="translate(32.467381, 21.402954)"><g><path d="M 0.25 0 L 0.25 -1.6875 L 0.453125 -1.6875 L 0.453125 0 Z M 0.25 0 "/></g></g></g><g fill="#245dab" fill-opacity="1"><g transform="translate(33.167839, 21.402954)"><g><path d="M 0.25 0 L 0.25 -1.6875 L 0.4375 -1.6875 L 1.375 -0.359375 L 1.375 -1.6875 L 1.578125 -1.6875 L 1.578125 0 L 1.390625 0 L 0.453125 -1.3125 L 0.453125 0 Z M 0.25 0 "/></g></g></g><g fill="#245dab" fill-opacity="1"><g transform="translate(34.99095, 21.402954)"><g><path d="M 0.25 0 L 0.25 -1.6875 L 0.828125 -1.6875 C 1.003906 -1.6875 1.15625 -1.648438 1.28125 -1.578125 C 1.40625 -1.503906 1.503906 -1.40625 1.578125 -1.28125 C 1.648438 -1.15625 1.6875 -1.007812 1.6875 -0.84375 C 1.6875 -0.675781 1.648438 -0.53125 1.578125 -0.40625 C 1.503906 -0.28125 1.40625 -0.179688 1.28125 -0.109375 C 1.15625 -0.0351562 1.003906 0 0.828125 0 Z M 0.453125 -0.203125 L 0.828125 -0.203125 C 0.953125 -0.203125 1.0625 -0.226562 1.15625 -0.28125 C 1.257812 -0.332031 1.335938 -0.40625 1.390625 -0.5 C 1.441406 -0.601562 1.46875 -0.71875 1.46875 -0.84375 C 1.46875 -0.96875 1.441406 -1.078125 1.390625 -1.171875 C 1.335938 -1.273438 1.257812 -1.351562 1.15625 -1.40625 C 1.0625 -1.457031 0.945312 -1.484375 0.8125 -1.484375 L 0.453125 -1.484375 Z M 0.453125 -0.203125 "/></g></g></g><g fill="#245dab" fill-opacity="1"><g transform="translate(36.816457, 21.402954)"><g/></g></g><g fill="#245dab" fill-opacity="1"><g transform="translate(37.411368, 21.402954)"><g><path d="M 0.671875 0 L 0.671875 -0.609375 L 0.046875 -1.6875 L 0.28125 -1.6875 L 0.5625 -1.21875 L 0.78125 -0.828125 L 1.28125 -1.6875 L 1.515625 -1.6875 L 0.875 -0.609375 L 0.875 0 Z M 0.671875 0 "/></g></g></g><g fill="#245dab" fill-opacity="1"><g transform="translate(38.961011, 21.402954)"><g><path d="M 1.015625 0.03125 C 0.835938 0.03125 0.679688 -0.00390625 0.546875 -0.078125 C 0.421875 -0.148438 0.320312 -0.253906 0.25 -0.390625 C 0.175781 -0.523438 0.140625 -0.675781 0.140625 -0.84375 C 0.140625 -1.007812 0.175781 -1.15625 0.25 -1.28125 C 0.320312 -1.414062 0.421875 -1.519531 0.546875 -1.59375 C 0.679688 -1.675781 0.835938 -1.71875 1.015625 -1.71875 C 1.179688 -1.71875 1.328125 -1.675781 1.453125 -1.59375 C 1.585938 -1.519531 1.691406 -1.414062 1.765625 -1.28125 C 1.847656 -1.15625 1.890625 -1.007812 1.890625 -0.84375 C 1.890625 -0.675781 1.847656 -0.523438 1.765625 -0.390625 C 1.691406 -0.253906 1.585938 -0.148438 1.453125 -0.078125 C 1.328125 -0.00390625 1.179688 0.03125 1.015625 0.03125 Z M 0.359375 -0.84375 C 0.359375 -0.707031 0.382812 -0.585938 0.4375 -0.484375 C 0.488281 -0.390625 0.5625 -0.316406 0.65625 -0.265625 C 0.757812 -0.210938 0.878906 -0.1875 1.015625 -0.1875 C 1.140625 -0.1875 1.25 -0.210938 1.34375 -0.265625 C 1.445312 -0.316406 1.523438 -0.390625 1.578125 -0.484375 C 1.640625 -0.585938 1.671875 -0.707031 1.671875 -0.84375 C 1.671875 -0.976562 1.640625 -1.09375 1.578125 -1.1875 C 1.523438 -1.28125 1.445312 -1.351562 1.34375 -1.40625 C 1.25 -1.46875 1.140625 -1.5 1.015625 -1.5 C 0.878906 -1.5 0.757812 -1.46875 0.65625 -1.40625 C 0.5625 -1.351562 0.488281 -1.28125 0.4375 -1.1875 C 0.382812 -1.09375 0.359375 -0.976562 0.359375 -0.84375 Z M 0.359375 -0.84375 "/></g></g></g><g fill="#245dab" fill-opacity="1"><g transform="translate(40.976028, 21.402954)"><g><path d="M 0.875 0.03125 C 0.664062 0.03125 0.503906 -0.03125 0.390625 -0.15625 C 0.273438 -0.28125 0.21875 -0.457031 0.21875 -0.6875 L 0.21875 -1.6875 L 0.4375 -1.6875 L 0.4375 -0.703125 C 0.4375 -0.523438 0.472656 -0.390625 0.546875 -0.296875 C 0.617188 -0.210938 0.726562 -0.171875 0.875 -0.171875 C 1.164062 -0.171875 1.3125 -0.347656 1.3125 -0.703125 L 1.3125 -1.6875 L 1.53125 -1.6875 L 1.53125 -0.6875 C 1.53125 -0.457031 1.472656 -0.28125 1.359375 -0.15625 C 1.242188 -0.03125 1.082031 0.03125 0.875 0.03125 Z M 0.875 0.03125 "/></g></g></g><g fill="#245dab" fill-opacity="1"><g transform="translate(42.724773, 21.402954)"><g><path d="M 0.25 0 L 0.25 -1.6875 L 0.890625 -1.6875 C 1.003906 -1.6875 1.101562 -1.660156 1.1875 -1.609375 C 1.28125 -1.566406 1.347656 -1.503906 1.390625 -1.421875 C 1.441406 -1.347656 1.46875 -1.253906 1.46875 -1.140625 C 1.46875 -1.003906 1.429688 -0.890625 1.359375 -0.796875 C 1.285156 -0.710938 1.191406 -0.65625 1.078125 -0.625 L 1.5 0 L 1.234375 0 L 0.828125 -0.609375 L 0.453125 -0.609375 L 0.453125 0 Z M 0.453125 -0.8125 L 0.859375 -0.8125 C 0.984375 -0.8125 1.078125 -0.835938 1.140625 -0.890625 C 1.210938 -0.953125 1.25 -1.035156 1.25 -1.140625 C 1.25 -1.242188 1.210938 -1.328125 1.140625 -1.390625 C 1.078125 -1.453125 0.984375 -1.484375 0.859375 -1.484375 L 0.453125 -1.484375 Z M 0.453125 -0.8125 "/></g></g></g><g fill="#245dab" fill-opacity="1"><g transform="translate(44.358374, 21.402954)"><g/></g></g><g fill="#245dab" fill-opacity="1"><g transform="translate(44.953285, 21.402954)"><g><path d="M 0.25 0 L 0.25 -1.6875 L 0.4375 -1.6875 L 1.375 -0.359375 L 1.375 -1.6875 L 1.578125 -1.6875 L 1.578125 0 L 1.390625 0 L 0.453125 -1.3125 L 0.453125 0 Z M 0.25 0 "/></g></g></g><g fill="#245dab" fill-opacity="1"><g transform="translate(46.776395, 21.402954)"><g><path d="M 0.25 0 L 0.25 -1.6875 L 1.265625 -1.6875 L 1.265625 -1.484375 L 0.453125 -1.484375 L 0.453125 -0.953125 L 1.203125 -0.953125 L 1.203125 -0.765625 L 0.453125 -0.765625 L 0.453125 -0.203125 L 1.296875 -0.203125 L 1.296875 0 Z M 0.25 0 "/></g></g></g><g fill="#245dab" fill-opacity="1"><g transform="translate(48.222888, 21.402954)"><g><path d="M 0.09375 0 L 0.6875 -0.859375 L 0.109375 -1.6875 L 0.375 -1.6875 L 0.828125 -1.015625 L 0.96875 -1.234375 L 1.28125 -1.6875 L 1.53125 -1.6875 L 0.953125 -0.859375 L 1.5625 0 L 1.3125 0 L 0.96875 -0.5 L 0.828125 -0.703125 L 0.34375 0 Z M 0.09375 0 "/></g></g></g><g fill="#245dab" fill-opacity="1"><g transform="translate(49.870884, 21.402954)"><g><path d="M 0.65625 0 L 0.65625 -1.484375 L 0.078125 -1.484375 L 0.078125 -1.6875 L 1.4375 -1.6875 L 1.4375 -1.484375 L 0.859375 -1.484375 L 0.859375 0 Z M 0.65625 0 "/></g></g></g><g fill="#245dab" fill-opacity="1"><g transform="translate(51.382146, 21.402954)"><g/></g></g><g fill="#245dab" fill-opacity="1"><g transform="translate(51.977057, 21.402954)"><g><path d="M 1.015625 0.03125 C 0.835938 0.03125 0.679688 -0.00390625 0.546875 -0.078125 C 0.421875 -0.148438 0.320312 -0.253906 0.25 -0.390625 C 0.175781 -0.523438 0.140625 -0.675781 0.140625 -0.84375 C 0.140625 -1.007812 0.175781 -1.15625 0.25 -1.28125 C 0.320312 -1.414062 0.421875 -1.519531 0.546875 -1.59375 C 0.679688 -1.675781 0.835938 -1.71875 1.015625 -1.71875 C 1.179688 -1.71875 1.328125 -1.675781 1.453125 -1.59375 C 1.585938 -1.519531 1.691406 -1.414062 1.765625 -1.28125 C 1.847656 -1.15625 1.890625 -1.007812 1.890625 -0.84375 C 1.890625 -0.675781 1.847656 -0.523438 1.765625 -0.390625 C 1.691406 -0.253906 1.585938 -0.148438 1.453125 -0.078125 C 1.328125 -0.00390625 1.179688 0.03125 1.015625 0.03125 Z M 0.359375 -0.84375 C 0.359375 -0.707031 0.382812 -0.585938 0.4375 -0.484375 C 0.488281 -0.390625 0.5625 -0.316406 0.65625 -0.265625 C 0.757812 -0.210938 0.878906 -0.1875 1.015625 -0.1875 C 1.140625 -0.1875 1.25 -0.210938 1.34375 -0.265625 C 1.445312 -0.316406 1.523438 -0.390625 1.578125 -0.484375 C 1.640625 -0.585938 1.671875 -0.707031 1.671875 -0.84375 C 1.671875 -0.976562 1.640625 -1.09375 1.578125 -1.1875 C 1.523438 -1.28125 1.445312 -1.351562 1.34375 -1.40625 C 1.25 -1.46875 1.140625 -1.5 1.015625 -1.5 C 0.878906 -1.5 0.757812 -1.46875 0.65625 -1.40625 C 0.5625 -1.351562 0.488281 -1.28125 0.4375 -1.1875 C 0.382812 -1.09375 0.359375 -0.976562 0.359375 -0.84375 Z M 0.359375 -0.84375 "/></g></g></g><g fill="#245dab" fill-opacity="1"><g transform="translate(53.992073, 21.402954)"><g><path d="M 0.25 0 L 0.25 -1.6875 L 0.8125 -1.6875 C 0.9375 -1.6875 1.046875 -1.660156 1.140625 -1.609375 C 1.234375 -1.566406 1.304688 -1.503906 1.359375 -1.421875 C 1.410156 -1.335938 1.4375 -1.238281 1.4375 -1.125 C 1.4375 -1.007812 1.410156 -0.90625 1.359375 -0.8125 C 1.304688 -0.726562 1.234375 -0.660156 1.140625 -0.609375 C 1.046875 -0.566406 0.9375 -0.546875 0.8125 -0.546875 L 0.453125 -0.546875 L 0.453125 0 Z M 0.453125 -0.75 L 0.8125 -0.75 C 1.082031 -0.75 1.21875 -0.867188 1.21875 -1.109375 C 1.21875 -1.359375 1.082031 -1.484375 0.8125 -1.484375 L 0.453125 -1.484375 Z M 0.453125 -0.75 "/></g></g></g><g fill="#245dab" fill-opacity="1"><g transform="translate(55.524925, 21.402954)"><g><path d="M 0.25 0 L 0.25 -1.6875 L 0.8125 -1.6875 C 0.9375 -1.6875 1.046875 -1.660156 1.140625 -1.609375 C 1.234375 -1.566406 1.304688 -1.503906 1.359375 -1.421875 C 1.410156 -1.335938 1.4375 -1.238281 1.4375 -1.125 C 1.4375 -1.007812 1.410156 -0.90625 1.359375 -0.8125 C 1.304688 -0.726562 1.234375 -0.660156 1.140625 -0.609375 C 1.046875 -0.566406 0.9375 -0.546875 0.8125 -0.546875 L 0.453125 -0.546875 L 0.453125 0 Z M 0.453125 -0.75 L 0.8125 -0.75 C 1.082031 -0.75 1.21875 -0.867188 1.21875 -1.109375 C 1.21875 -1.359375 1.082031 -1.484375 0.8125 -1.484375 L 0.453125 -1.484375 Z M 0.453125 -0.75 "/></g></g></g><g fill="#245dab" fill-opacity="1"><g transform="translate(57.057777, 21.402954)"><g><path d="M 1.015625 0.03125 C 0.835938 0.03125 0.679688 -0.00390625 0.546875 -0.078125 C 0.421875 -0.148438 0.320312 -0.253906 0.25 -0.390625 C 0.175781 -0.523438 0.140625 -0.675781 0.140625 -0.84375 C 0.140625 -1.007812 0.175781 -1.15625 0.25 -1.28125 C 0.320312 -1.414062 0.421875 -1.519531 0.546875 -1.59375 C 0.679688 -1.675781 0.835938 -1.71875 1.015625 -1.71875 C 1.179688 -1.71875 1.328125 -1.675781 1.453125 -1.59375 C 1.585938 -1.519531 1.691406 -1.414062 1.765625 -1.28125 C 1.847656 -1.15625 1.890625 -1.007812 1.890625 -0.84375 C 1.890625 -0.675781 1.847656 -0.523438 1.765625 -0.390625 C 1.691406 -0.253906 1.585938 -0.148438 1.453125 -0.078125 C 1.328125 -0.00390625 1.179688 0.03125 1.015625 0.03125 Z M 0.359375 -0.84375 C 0.359375 -0.707031 0.382812 -0.585938 0.4375 -0.484375 C 0.488281 -0.390625 0.5625 -0.316406 0.65625 -0.265625 C 0.757812 -0.210938 0.878906 -0.1875 1.015625 -0.1875 C 1.140625 -0.1875 1.25 -0.210938 1.34375 -0.265625 C 1.445312 -0.316406 1.523438 -0.390625 1.578125 -0.484375 C 1.640625 -0.585938 1.671875 -0.707031 1.671875 -0.84375 C 1.671875 -0.976562 1.640625 -1.09375 1.578125 -1.1875 C 1.523438 -1.28125 1.445312 -1.351562 1.34375 -1.40625 C 1.25 -1.46875 1.140625 -1.5 1.015625 -1.5 C 0.878906 -1.5 0.757812 -1.46875 0.65625 -1.40625 C 0.5625 -1.351562 0.488281 -1.28125 0.4375 -1.1875 C 0.382812 -1.09375 0.359375 -0.976562 0.359375 -0.84375 Z M 0.359375 -0.84375 "/></g></g></g><g fill="#245dab" fill-opacity="1"><g transform="translate(59.072793, 21.402954)"><g><path d="M 0.25 0 L 0.25 -1.6875 L 0.890625 -1.6875 C 1.003906 -1.6875 1.101562 -1.660156 1.1875 -1.609375 C 1.28125 -1.566406 1.347656 -1.503906 1.390625 -1.421875 C 1.441406 -1.347656 1.46875 -1.253906 1.46875 -1.140625 C 1.46875 -1.003906 1.429688 -0.890625 1.359375 -0.796875 C 1.285156 -0.710938 1.191406 -0.65625 1.078125 -0.625 L 1.5 0 L 1.234375 0 L 0.828125 -0.609375 L 0.453125 -0.609375 L 0.453125 0 Z M 0.453125 -0.8125 L 0.859375 -0.8125 C 0.984375 -0.8125 1.078125 -0.835938 1.140625 -0.890625 C 1.210938 -0.953125 1.25 -1.035156 1.25 -1.140625 C 1.25 -1.242188 1.210938 -1.328125 1.140625 -1.390625 C 1.078125 -1.453125 0.984375 -1.484375 0.859375 -1.484375 L 0.453125 -1.484375 Z M 0.453125 -0.8125 "/></g></g></g><g fill="#245dab" fill-opacity="1"><g transform="translate(60.706395, 21.402954)"><g><path d="M 0.65625 0 L 0.65625 -1.484375 L 0.078125 -1.484375 L 0.078125 -1.6875 L 1.4375 -1.6875 L 1.4375 -1.484375 L 0.859375 -1.484375 L 0.859375 0 Z M 0.65625 0 "/></g></g></g><g fill="#245dab" fill-opacity="1"><g transform="translate(62.217657, 21.402954)"><g><path d="M 0.875 0.03125 C 0.664062 0.03125 0.503906 -0.03125 0.390625 -0.15625 C 0.273438 -0.28125 0.21875 -0.457031 0.21875 -0.6875 L 0.21875 -1.6875 L 0.4375 -1.6875 L 0.4375 -0.703125 C 0.4375 -0.523438 0.472656 -0.390625 0.546875 -0.296875 C 0.617188 -0.210938 0.726562 -0.171875 0.875 -0.171875 C 1.164062 -0.171875 1.3125 -0.347656 1.3125 -0.703125 L 1.3125 -1.6875 L 1.53125 -1.6875 L 1.53125 -0.6875 C 1.53125 -0.457031 1.472656 -0.28125 1.359375 -0.15625 C 1.242188 -0.03125 1.082031 0.03125 0.875 0.03125 Z M 0.875 0.03125 "/></g></g></g><g fill="#245dab" fill-opacity="1"><g transform="translate(63.966402, 21.402954)"><g><path d="M 0.25 0 L 0.25 -1.6875 L 0.4375 -1.6875 L 1.375 -0.359375 L 1.375 -1.6875 L 1.578125 -1.6875 L 1.578125 0 L 1.390625 0 L 0.453125 -1.3125 L 0.453125 0 Z M 0.25 0 "/></g></g></g><g fill="#245dab" fill-opacity="1"><g transform="translate(65.789512, 21.402954)"><g><path d="M 0.25 0 L 0.25 -1.6875 L 0.453125 -1.6875 L 0.453125 0 Z M 0.25 0 "/></g></g></g><g fill="#245dab" fill-opacity="1"><g transform="translate(66.489971, 21.402954)"><g><path d="M 0.65625 0 L 0.65625 -1.484375 L 0.078125 -1.484375 L 0.078125 -1.6875 L 1.4375 -1.6875 L 1.4375 -1.484375 L 0.859375 -1.484375 L 0.859375 0 Z M 0.65625 0 "/></g></g></g><g fill="#245dab" fill-opacity="1"><g transform="translate(68.001233, 21.402954)"><g><path d="M 0.671875 0 L 0.671875 -0.609375 L 0.046875 -1.6875 L 0.28125 -1.6875 L 0.5625 -1.21875 L 0.78125 -0.828125 L 1.28125 -1.6875 L 1.515625 -1.6875 L 0.875 -0.609375 L 0.875 0 Z M 0.671875 0 "/></g></g></g></svg>