<svg xmlns="http://www.w3.org/2000/svg" xmlns:xlink="http://www.w3.org/1999/xlink" width="50" zoomAndPan="magnify" viewBox="0 0 375 374.999991" height="50" preserveAspectRatio="xMidYMid meet" version="1.0"><path fill="#245dab" d="M 187.5 0 C 190.570312 0 193.636719 0.0742188 196.699219 0.226562 C 199.765625 0.375 202.824219 0.601562 205.878906 0.902344 C 208.933594 1.203125 211.976562 1.578125 215.011719 2.03125 C 218.046875 2.480469 221.070312 3.003906 224.078125 3.601562 C 227.089844 4.203125 230.082031 4.875 233.058594 5.617188 C 236.035156 6.363281 238.992188 7.183594 241.929688 8.074219 C 244.863281 8.964844 247.777344 9.925781 250.667969 10.960938 C 253.554688 11.996094 256.417969 13.097656 259.253906 14.273438 C 262.089844 15.445312 264.890625 16.691406 267.667969 18.003906 C 270.441406 19.3125 273.179688 20.691406 275.886719 22.140625 C 278.59375 23.585938 281.261719 25.097656 283.894531 26.675781 C 286.527344 28.253906 289.117188 29.894531 291.667969 31.597656 C 294.222656 33.304688 296.730469 35.070312 299.195312 36.898438 C 301.660156 38.726562 304.078125 40.613281 306.449219 42.558594 C 308.820312 44.507812 311.144531 46.511719 313.417969 48.570312 C 315.691406 50.632812 317.914062 52.746094 320.082031 54.917969 C 322.253906 57.085938 324.367188 59.308594 326.429688 61.582031 C 328.488281 63.855469 330.492188 66.179688 332.441406 68.550781 C 334.386719 70.921875 336.273438 73.339844 338.101562 75.804688 C 339.929688 78.269531 341.695312 80.777344 343.402344 83.332031 C 345.105469 85.882812 346.746094 88.472656 348.324219 91.105469 C 349.902344 93.738281 351.414062 96.40625 352.859375 99.113281 C 354.308594 101.820312 355.6875 104.558594 356.996094 107.332031 C 358.308594 110.105469 359.554688 112.910156 360.726562 115.746094 C 361.902344 118.582031 363.003906 121.445312 364.039062 124.332031 C 365.074219 127.222656 366.035156 130.136719 366.925781 133.070312 C 367.816406 136.007812 368.636719 138.964844 369.378906 141.941406 C 370.125 144.917969 370.796875 147.910156 371.398438 150.921875 C 371.996094 153.929688 372.519531 156.953125 372.96875 159.988281 C 373.421875 163.023438 373.796875 166.066406 374.097656 169.121094 C 374.398438 172.175781 374.625 175.234375 374.773438 178.300781 C 374.925781 181.363281 375 184.429688 375 187.5 C 375 190.570312 374.925781 193.636719 374.773438 196.699219 C 374.625 199.765625 374.398438 202.824219 374.097656 205.878906 C 373.796875 208.933594 373.421875 211.976562 372.96875 215.011719 C 372.519531 218.046875 371.996094 221.070312 371.398438 224.078125 C 370.796875 227.089844 370.125 230.082031 369.378906 233.058594 C 368.636719 236.035156 367.816406 238.992188 366.925781 241.929688 C 366.035156 244.863281 365.074219 247.777344 364.039062 250.667969 C 363.003906 253.554688 361.902344 256.417969 360.726562 259.253906 C 359.554688 262.089844 358.308594 264.890625 356.996094 267.667969 C 355.6875 270.441406 354.308594 273.179688 352.859375 275.886719 C 351.414062 278.59375 349.902344 281.261719 348.324219 283.894531 C 346.746094 286.527344 345.105469 289.117188 343.402344 291.667969 C 341.695312 294.222656 339.929688 296.730469 338.101562 299.195312 C 336.273438 301.660156 334.386719 304.078125 332.441406 306.449219 C 330.492188 308.820312 328.488281 311.144531 326.429688 313.417969 C 324.367188 315.691406 322.253906 317.914062 320.082031 320.082031 C 317.914062 322.253906 315.691406 324.367188 313.417969 326.429688 C 311.144531 328.488281 308.820312 330.492188 306.449219 332.441406 C 304.078125 334.386719 301.660156 336.273438 299.195312 338.101562 C 296.730469 339.929688 294.222656 341.695312 291.667969 343.402344 C 289.117188 345.105469 286.527344 346.746094 283.894531 348.324219 C 281.261719 349.902344 278.59375 351.414062 275.886719 352.859375 C 273.179688 354.308594 270.441406 355.6875 267.667969 356.996094 C 264.894531 358.308594 262.089844 359.554688 259.253906 360.726562 C 256.417969 361.902344 253.554688 363.003906 250.667969 364.039062 C 247.777344 365.074219 244.863281 366.035156 241.929688 366.925781 C 238.992188 367.816406 236.035156 368.636719 233.058594 369.378906 C 230.082031 370.125 227.089844 370.796875 224.078125 371.398438 C 221.070312 371.996094 218.046875 372.519531 215.011719 372.96875 C 211.976562 373.421875 208.933594 373.796875 205.878906 374.097656 C 202.824219 374.398438 199.765625 374.625 196.699219 374.773438 C 193.636719 374.925781 190.570312 375 187.5 375 C 184.429688 375 181.363281 374.925781 178.300781 374.773438 C 175.234375 374.625 172.175781 374.398438 169.121094 374.097656 C 166.066406 373.796875 163.023438 373.421875 159.988281 372.96875 C 156.953125 372.519531 153.929688 371.996094 150.921875 371.398438 C 147.910156 370.796875 144.917969 370.125 141.941406 369.378906 C 138.964844 368.636719 136.007812 367.816406 133.070312 366.925781 C 130.136719 366.035156 127.222656 365.074219 124.332031 364.039062 C 121.445312 363.003906 118.582031 361.902344 115.746094 360.726562 C 112.910156 359.554688 110.105469 358.308594 107.332031 356.996094 C 104.558594 355.6875 101.820312 354.308594 99.113281 352.859375 C 96.40625 351.414062 93.738281 349.902344 91.105469 348.324219 C 88.472656 346.746094 85.882812 345.105469 83.332031 343.402344 C 80.777344 341.695312 78.269531 339.929688 75.804688 338.101562 C 73.339844 336.273438 70.921875 334.386719 68.550781 332.441406 C 66.179688 330.492188 63.855469 328.488281 61.582031 326.429688 C 59.308594 324.367188 57.085938 322.253906 54.917969 320.082031 C 52.746094 317.914062 50.632812 315.691406 48.570312 313.417969 C 46.511719 311.144531 44.507812 308.820312 42.558594 306.449219 C 40.613281 304.078125 38.726562 301.660156 36.898438 299.195312 C 35.070312 296.730469 33.304688 294.222656 31.597656 291.667969 C 29.894531 289.117188 28.253906 286.527344 26.675781 283.894531 C 25.097656 281.261719 23.585938 278.59375 22.140625 275.886719 C 20.691406 273.179688 19.3125 270.441406 18.003906 267.667969 C 16.691406 264.890625 15.445312 262.089844 14.273438 259.253906 C 13.097656 256.417969 11.996094 253.554688 10.960938 250.667969 C 9.925781 247.777344 8.964844 244.863281 8.074219 241.929688 C 7.183594 238.992188 6.363281 236.035156 5.621094 233.058594 C 4.875 230.082031 4.203125 227.089844 3.601562 224.078125 C 3.003906 221.070312 2.480469 218.046875 2.03125 215.011719 C 1.578125 211.976562 1.203125 208.933594 0.902344 205.878906 C 0.601562 202.824219 0.375 199.765625 0.226562 196.699219 C 0.0742188 193.636719 0 190.570312 0 187.5 C 0 184.429688 0.0742188 181.363281 0.226562 178.300781 C 0.375 175.234375 0.601562 172.175781 0.902344 169.121094 C 1.203125 166.066406 1.578125 163.023438 2.03125 159.988281 C 2.480469 156.953125 3.003906 153.929688 3.601562 150.921875 C 4.203125 147.910156 4.875 144.917969 5.621094 141.941406 C 6.363281 138.964844 7.183594 136.007812 8.074219 133.070312 C 8.964844 130.136719 9.925781 127.222656 10.960938 124.332031 C 11.996094 121.445312 13.097656 118.582031 14.273438 115.746094 C 15.445312 112.910156 16.691406 110.105469 18.003906 107.332031 C 19.3125 104.558594 20.691406 101.820312 22.140625 99.113281 C 23.585938 96.40625 25.097656 93.738281 26.675781 91.105469 C 28.253906 88.472656 29.894531 85.882812 31.597656 83.332031 C 33.304688 80.777344 35.070312 78.269531 36.898438 75.804688 C 38.726562 73.339844 40.613281 70.921875 42.558594 68.550781 C 44.507812 66.179688 46.511719 63.855469 48.570312 61.582031 C 50.632812 59.308594 52.746094 57.085938 54.917969 54.917969 C 57.085938 52.746094 59.308594 50.632812 61.582031 48.570312 C 63.855469 46.511719 66.179688 44.507812 68.550781 42.558594 C 70.921875 40.613281 73.339844 38.726562 75.804688 36.898438 C 78.269531 35.070312 80.777344 33.304688 83.332031 31.597656 C 85.882812 29.894531 88.472656 28.253906 91.105469 26.675781 C 93.738281 25.097656 96.40625 23.585938 99.113281 22.140625 C 101.820312 20.691406 104.558594 19.3125 107.332031 18.003906 C 110.105469 16.691406 112.910156 15.445312 115.746094 14.273438 C 118.582031 13.097656 121.445312 11.996094 124.332031 10.960938 C 127.222656 9.925781 130.136719 8.964844 133.070312 8.074219 C 136.007812 7.183594 138.964844 6.363281 141.941406 5.617188 C 144.917969 4.875 147.910156 4.203125 150.921875 3.601562 C 153.929688 3.003906 156.953125 2.480469 159.988281 2.03125 C 163.023438 1.578125 166.066406 1.203125 169.121094 0.902344 C 172.175781 0.601562 175.234375 0.375 178.300781 0.226562 C 181.363281 0.0742188 184.429688 0 187.5 0 Z M 187.5 0 " fill-opacity="1" fill-rule="evenodd"/><path fill="#ffffff" d="M 186.25 292.917969 C 158.332031 292.917969 131.667969 282.082031 111.667969 262.082031 C 91.667969 242.082031 80.832031 215.832031 80.832031 187.5 C 80.832031 159.167969 91.667969 132.917969 111.667969 112.917969 C 131.667969 92.917969 158.332031 82.082031 186.25 82.082031 C 214.582031 82.082031 240.832031 92.917969 260.832031 112.917969 C 280.832031 132.917969 291.667969 159.167969 291.667969 187.5 C 291.667969 215.832031 280.832031 242.082031 260.832031 262.082031 C 240.832031 282.082031 214.582031 292.917969 186.25 292.917969 Z M 186.25 86.667969 C 130.832031 86.667969 85.417969 132.082031 85.417969 187.5 C 85.417969 242.917969 130.832031 288.332031 186.25 288.332031 C 242.082031 288.332031 287.082031 242.917969 287.082031 187.5 C 287.082031 132.082031 242.082031 86.667969 186.25 86.667969 Z M 186.25 86.667969 " fill-opacity="1" fill-rule="evenodd"/><path fill="#ffffff" d="M 186.25 269.582031 C 141.25 269.582031 104.167969 232.917969 104.167969 187.5 C 104.167969 142.082031 141.25 105.417969 186.25 105.417969 C 231.667969 105.417969 268.332031 142.082031 268.332031 187.5 C 268.332031 232.917969 231.667969 269.582031 186.25 269.582031 Z M 186.25 110 C 143.75 110 109.167969 145 109.167969 187.5 C 109.167969 230 143.75 265 186.25 265 C 229.167969 265 263.75 230 263.75 187.5 C 263.75 145 229.167969 110 186.25 110 Z M 186.25 110 " fill-opacity="1" fill-rule="evenodd"/><path fill="#ffffff" d="M 186.25 133.75 C 185 133.75 184.167969 132.5 184.167969 131.25 L 184.167969 84.167969 C 184.167969 82.917969 185 82.082031 186.25 82.082031 C 187.5 82.082031 188.75 82.917969 188.75 84.167969 L 188.75 131.25 C 188.75 132.5 187.5 133.75 186.25 133.75 Z M 186.25 133.75 " fill-opacity="1" fill-rule="evenodd"/><path fill="#ffffff" d="M 186.25 292.917969 C 185 292.917969 184.167969 292.082031 184.167969 290.832031 L 184.167969 243.75 C 184.167969 242.5 185 241.25 186.25 241.25 C 187.5 241.25 188.75 242.5 188.75 243.75 L 188.75 290.832031 C 188.75 292.082031 187.5 292.917969 186.25 292.917969 Z M 186.25 292.917969 " fill-opacity="1" fill-rule="evenodd"/><path fill="#ffffff" d="M 289.582031 190 L 242.5 190 C 241.25 190 240.417969 188.75 240.417969 187.5 C 240.417969 186.25 241.25 185 242.5 185 L 289.582031 185 C 290.832031 185 291.667969 186.25 291.667969 187.5 C 291.667969 188.75 290.832031 190 289.582031 190 Z M 289.582031 190 " fill-opacity="1" fill-rule="evenodd"/><path fill="#ffffff" d="M 130 190 L 83.332031 190 C 82.082031 190 80.832031 188.75 80.832031 187.5 C 80.832031 186.25 82.082031 185 83.332031 185 L 130 185 C 131.25 185 132.5 186.25 132.5 187.5 C 132.5 188.75 131.25 190 130 190 Z M 130 190 " fill-opacity="1" fill-rule="evenodd"/><path fill="#ffffff" d="M 280 112.5 C 272.5 112.5 265.832031 106.25 265.832031 98.332031 C 265.832031 90.832031 272.5 84.167969 280 84.167969 C 287.917969 84.167969 294.167969 90.832031 294.167969 98.332031 C 294.167969 106.25 287.917969 112.5 280 112.5 Z M 280 89.167969 C 275 89.167969 270.832031 93.332031 270.832031 98.332031 C 270.832031 103.75 275 107.917969 280 107.917969 C 285.417969 107.917969 289.582031 103.75 289.582031 98.332031 C 289.582031 93.332031 285.417969 89.167969 280 89.167969 Z M 280 89.167969 " fill-opacity="1" fill-rule="evenodd"/><path fill="#ffffff" d="M 99.582031 292.917969 C 91.667969 292.917969 85.417969 286.667969 85.417969 278.75 C 85.417969 271.25 91.667969 265 99.582031 265 C 107.5 265 113.75 271.25 113.75 278.75 C 113.75 286.667969 107.5 292.917969 99.582031 292.917969 Z M 99.582031 269.582031 C 94.582031 269.582031 90.417969 273.75 90.417969 278.75 C 90.417969 284.167969 94.582031 288.332031 99.582031 288.332031 C 104.582031 288.332031 109.167969 284.167969 109.167969 278.75 C 109.167969 273.75 104.582031 269.582031 99.582031 269.582031 Z M 99.582031 269.582031 " fill-opacity="1" fill-rule="evenodd"/><path fill="#ffffff" d="M 186.25 185.832031 C 173.75 185.832031 163.75 175.832031 163.75 163.332031 C 163.75 150.832031 173.75 140.417969 186.25 140.417969 C 198.75 140.417969 208.75 150.832031 208.75 163.332031 C 208.75 175.832031 198.75 185.832031 186.25 185.832031 Z M 186.25 145.417969 C 176.25 145.417969 168.332031 153.332031 168.332031 163.332031 C 168.332031 172.917969 176.25 181.25 186.25 181.25 C 196.25 181.25 204.167969 172.917969 204.167969 163.332031 C 204.167969 153.332031 196.25 145.417969 186.25 145.417969 Z M 186.25 145.417969 " fill-opacity="1" fill-rule="evenodd"/><path fill="#ffffff" d="M 186.25 218.75 C 185.417969 218.75 185 218.332031 184.582031 217.917969 L 177.082031 209.167969 C 176.667969 208.75 176.25 207.917969 176.667969 207.082031 L 184.167969 182.917969 C 184.582031 181.667969 185.417969 181.25 186.25 181.25 C 187.082031 181.25 188.332031 181.667969 188.332031 182.5 L 197.5 206.667969 C 197.917969 207.917969 197.5 208.75 197.082031 209.167969 L 187.917969 217.917969 C 187.5 218.332031 187.082031 218.75 186.25 218.75 Z M 181.667969 207.082031 L 186.667969 212.917969 L 192.5 207.082031 L 186.667969 190.832031 Z M 181.667969 207.082031 " fill-opacity="1" fill-rule="evenodd"/><path fill="#ffffff" d="M 210.417969 227.5 C 208.75 227.5 207.917969 226.667969 207.917969 225.417969 L 207.917969 215 C 207.917969 213.75 208.75 212.5 210.417969 212.5 C 211.667969 212.5 212.5 213.75 212.5 215 L 212.5 225.417969 C 212.5 226.667969 211.667969 227.5 210.417969 227.5 Z M 210.417969 227.5 " fill-opacity="1" fill-rule="evenodd"/><path fill="#ffffff" d="M 162.5 227.5 C 161.25 227.5 160 226.667969 160 225.417969 L 160 215 C 160 213.75 161.25 212.5 162.5 212.5 C 163.75 212.5 164.582031 213.75 164.582031 215 L 164.582031 225.417969 C 164.582031 226.667969 163.75 227.5 162.5 227.5 Z M 162.5 227.5 " fill-opacity="1" fill-rule="evenodd"/><path fill="#ffffff" d="M 223.75 227.5 L 149.167969 227.5 C 147.5 227.5 146.667969 226.667969 146.667969 225.417969 L 146.667969 202.5 C 146.667969 202.082031 146.667969 201.25 147.082031 200.832031 C 156.25 188.75 170.832031 181.25 186.25 181.25 C 201.667969 181.25 216.25 188.75 225.417969 200.832031 C 225.832031 201.25 225.832031 202.082031 225.832031 202.5 L 225.832031 225.417969 C 225.832031 226.667969 225 227.5 223.75 227.5 Z M 151.25 222.917969 L 221.25 222.917969 L 221.25 203.332031 C 212.917969 192.5 200 185.832031 186.25 185.832031 C 172.5 185.832031 159.582031 192.5 151.25 203.332031 Z M 151.25 222.917969 " fill-opacity="1" fill-rule="evenodd"/></svg>